<mxfile host="app.diagrams.net" modified="2023-06-02T05:45:09.689Z" agent="Mozilla/5.0 (Windows NT 10.0; Win64; x64) AppleWebKit/537.36 (KHTML, like Gecko) Chrome/113.0.0.0 Safari/537.36" etag="4809azWhryErna_FZlwF" version="21.1.9" type="device">
  <diagram name="第 1 页" id="V1W0sLbI2GgZeyCbVdQ1">
    <mxGraphModel dx="1194" dy="682" grid="1" gridSize="10" guides="1" tooltips="1" connect="1" arrows="1" fold="1" page="1" pageScale="1" pageWidth="827" pageHeight="1169" math="0" shadow="0">
      <root>
        <mxCell id="0" />
        <mxCell id="1" parent="0" />
        <mxCell id="WFYV-QFJoavZbaiG5XtV-6" value="Circle" style="swimlane;fontStyle=1;align=center;verticalAlign=top;childLayout=stackLayout;horizontal=1;startSize=29;horizontalStack=0;resizeParent=1;resizeParentMax=0;resizeLast=0;collapsible=1;marginBottom=0;" parent="1" vertex="1">
          <mxGeometry x="120" y="291" width="120" height="54" as="geometry" />
        </mxCell>
        <mxCell id="WFYV-QFJoavZbaiG5XtV-7" value="+ draw()" style="text;strokeColor=none;fillColor=none;align=left;verticalAlign=top;spacingLeft=4;spacingRight=4;overflow=hidden;rotatable=0;points=[[0,0.5],[1,0.5]];portConstraint=eastwest;fontStyle=0" parent="WFYV-QFJoavZbaiG5XtV-6" vertex="1">
          <mxGeometry y="29" width="120" height="25" as="geometry" />
        </mxCell>
        <mxCell id="WFYV-QFJoavZbaiG5XtV-9" value="AbstractShape" style="swimlane;fontStyle=3;align=center;verticalAlign=top;childLayout=stackLayout;horizontal=1;startSize=29;horizontalStack=0;resizeParent=1;resizeParentMax=0;resizeLast=0;collapsible=1;marginBottom=0;" parent="1" vertex="1">
          <mxGeometry x="414" y="291" width="170" height="75" as="geometry" />
        </mxCell>
        <mxCell id="WFYV-QFJoavZbaiG5XtV-10" value="+ draw()&#xa;" style="text;strokeColor=none;fillColor=none;align=left;verticalAlign=top;spacingLeft=4;spacingRight=4;overflow=hidden;rotatable=0;points=[[0,0.5],[1,0.5]];portConstraint=eastwest;fontStyle=0" parent="WFYV-QFJoavZbaiG5XtV-9" vertex="1">
          <mxGeometry y="29" width="170" height="21" as="geometry" />
        </mxCell>
        <mxCell id="3bxMyY07gaNrHPJ1wsRd-1" value="+ postProcess()" style="text;strokeColor=none;fillColor=none;align=left;verticalAlign=top;spacingLeft=4;spacingRight=4;overflow=hidden;rotatable=0;points=[[0,0.5],[1,0.5]];portConstraint=eastwest;fontStyle=2" parent="WFYV-QFJoavZbaiG5XtV-9" vertex="1">
          <mxGeometry y="50" width="170" height="25" as="geometry" />
        </mxCell>
        <mxCell id="WFYV-QFJoavZbaiG5XtV-14" value="" style="endArrow=block;endSize=10;endFill=0;shadow=0;strokeWidth=1;rounded=0;edgeStyle=elbowEdgeStyle;elbow=vertical;dashed=1;dashPattern=8 8;labelBackgroundColor=none;fontColor=default;exitX=0.5;exitY=0;exitDx=0;exitDy=0;entryX=0.5;entryY=1;entryDx=0;entryDy=0;" parent="1" source="WFYV-QFJoavZbaiG5XtV-6" target="WFYV-QFJoavZbaiG5XtV-22" edge="1">
          <mxGeometry width="160" relative="1" as="geometry">
            <mxPoint x="230" y="310" as="sourcePoint" />
            <mxPoint x="362.5" y="244" as="targetPoint" />
          </mxGeometry>
        </mxCell>
        <mxCell id="WFYV-QFJoavZbaiG5XtV-21" value="" style="endArrow=block;endSize=10;endFill=0;shadow=0;strokeWidth=1;rounded=0;edgeStyle=elbowEdgeStyle;elbow=vertical;dashed=1;dashPattern=8 8;labelBackgroundColor=none;fontColor=default;entryX=0.5;entryY=1;entryDx=0;entryDy=0;" parent="1" source="WFYV-QFJoavZbaiG5XtV-9" target="WFYV-QFJoavZbaiG5XtV-22" edge="1">
          <mxGeometry width="160" relative="1" as="geometry">
            <mxPoint x="245" y="330" as="sourcePoint" />
            <mxPoint x="362.5" y="244" as="targetPoint" />
          </mxGeometry>
        </mxCell>
        <mxCell id="WFYV-QFJoavZbaiG5XtV-22" value="&lt;p style=&quot;margin:0px;margin-top:4px;text-align:center;&quot;&gt;&lt;i&gt;&amp;lt;&amp;lt;Interface&amp;gt;&amp;gt;&lt;br&gt;&lt;b&gt;Shape&lt;/b&gt;&lt;/i&gt;&lt;/p&gt;&lt;hr size=&quot;1&quot;&gt;&lt;p style=&quot;margin:0px;margin-left:4px;&quot;&gt;&lt;/p&gt;&lt;p style=&quot;margin:0px;margin-left:4px;&quot;&gt;&lt;i&gt;+ draw()&lt;/i&gt;&lt;/p&gt;" style="verticalAlign=top;align=left;overflow=fill;fontSize=12;fontFamily=Helvetica;html=1;" parent="1" vertex="1">
          <mxGeometry x="280" y="90" width="145" height="70" as="geometry" />
        </mxCell>
        <mxCell id="NPx4a5Mk-g4NtmI8U1vI-1" value="&lt;div&gt;this.shape.draw();&lt;/div&gt;&lt;div&gt;this.postProcess();&lt;span style=&quot;&quot;&gt;&lt;/span&gt;&lt;/div&gt;" style="shape=note2;boundedLbl=1;whiteSpace=wrap;html=1;size=25;verticalAlign=middle;align=left;labelPosition=center;verticalLabelPosition=middle;" parent="1" vertex="1">
          <mxGeometry x="646" y="330" width="170" height="50" as="geometry" />
        </mxCell>
        <mxCell id="NPx4a5Mk-g4NtmI8U1vI-2" value="" style="html=1;verticalAlign=bottom;labelBackgroundColor=none;startArrow=oval;startFill=0;startSize=8;endArrow=none;rounded=0;dashed=1;dashPattern=8 8;movable=1;resizable=1;rotatable=1;deletable=1;editable=1;locked=0;connectable=1;exitX=0.471;exitY=0.244;exitDx=0;exitDy=0;exitPerimeter=0;" parent="1" target="NPx4a5Mk-g4NtmI8U1vI-1" edge="1">
          <mxGeometry x="-0.0549" y="19" relative="1" as="geometry">
            <mxPoint x="496.06999999999994" y="334.0039999999999" as="sourcePoint" />
            <mxPoint x="352" y="264" as="targetPoint" />
            <mxPoint x="-1" as="offset" />
          </mxGeometry>
        </mxCell>
        <mxCell id="NPx4a5Mk-g4NtmI8U1vI-4" value="shape" style="endArrow=open;html=1;endSize=12;startArrow=diamondThin;startSize=14;startFill=0;edgeStyle=orthogonalEdgeStyle;align=left;verticalAlign=bottom;rounded=0;entryX=1;entryY=0.377;entryDx=0;entryDy=0;entryPerimeter=0;" parent="1" source="WFYV-QFJoavZbaiG5XtV-9" target="WFYV-QFJoavZbaiG5XtV-22" edge="1">
          <mxGeometry x="-0.8437" y="15" relative="1" as="geometry">
            <mxPoint x="620" y="340" as="sourcePoint" />
            <mxPoint x="490" y="370" as="targetPoint" />
            <Array as="points">
              <mxPoint x="620" y="330" />
              <mxPoint x="620" y="116" />
            </Array>
            <mxPoint as="offset" />
          </mxGeometry>
        </mxCell>
        <mxCell id="ZS0PEnUNFdM7AwBlkg2D-1" value="ColorPaintShape" style="swimlane;fontStyle=1;align=center;verticalAlign=top;childLayout=stackLayout;horizontal=1;startSize=29;horizontalStack=0;resizeParent=1;resizeParentMax=0;resizeLast=0;collapsible=1;marginBottom=0;" parent="1" vertex="1">
          <mxGeometry x="280" y="430" width="170" height="54" as="geometry" />
        </mxCell>
        <mxCell id="ZS0PEnUNFdM7AwBlkg2D-2" value="+ postProcess()" style="text;strokeColor=none;fillColor=none;align=left;verticalAlign=top;spacingLeft=4;spacingRight=4;overflow=hidden;rotatable=0;points=[[0,0.5],[1,0.5]];portConstraint=eastwest;fontStyle=0" parent="ZS0PEnUNFdM7AwBlkg2D-1" vertex="1">
          <mxGeometry y="29" width="170" height="25" as="geometry" />
        </mxCell>
        <mxCell id="ZS0PEnUNFdM7AwBlkg2D-3" value="EffectEnhanceShape" style="swimlane;fontStyle=1;align=center;verticalAlign=top;childLayout=stackLayout;horizontal=1;startSize=29;horizontalStack=0;resizeParent=1;resizeParentMax=0;resizeLast=0;collapsible=1;marginBottom=0;" parent="1" vertex="1">
          <mxGeometry x="540" y="431" width="170" height="54" as="geometry" />
        </mxCell>
        <mxCell id="ZS0PEnUNFdM7AwBlkg2D-4" value="+ postProcess()" style="text;strokeColor=none;fillColor=none;align=left;verticalAlign=top;spacingLeft=4;spacingRight=4;overflow=hidden;rotatable=0;points=[[0,0.5],[1,0.5]];portConstraint=eastwest;fontStyle=0" parent="ZS0PEnUNFdM7AwBlkg2D-3" vertex="1">
          <mxGeometry y="29" width="170" height="25" as="geometry" />
        </mxCell>
        <mxCell id="ZS0PEnUNFdM7AwBlkg2D-5" value="" style="endArrow=block;endSize=10;endFill=0;shadow=0;strokeWidth=1;rounded=0;edgeStyle=elbowEdgeStyle;elbow=vertical;labelBackgroundColor=none;fontColor=default;entryX=0.5;entryY=1;entryDx=0;entryDy=0;" parent="1" source="ZS0PEnUNFdM7AwBlkg2D-3" target="WFYV-QFJoavZbaiG5XtV-9" edge="1">
          <mxGeometry width="160" relative="1" as="geometry">
            <mxPoint x="505" y="301" as="sourcePoint" />
            <mxPoint x="530" y="380" as="targetPoint" />
          </mxGeometry>
        </mxCell>
        <mxCell id="ZS0PEnUNFdM7AwBlkg2D-6" value="" style="endArrow=block;endSize=10;endFill=0;shadow=0;strokeWidth=1;rounded=0;edgeStyle=elbowEdgeStyle;elbow=vertical;labelBackgroundColor=none;fontColor=default;exitX=0.5;exitY=0;exitDx=0;exitDy=0;entryX=0.5;entryY=1;entryDx=0;entryDy=0;" parent="1" source="ZS0PEnUNFdM7AwBlkg2D-1" target="WFYV-QFJoavZbaiG5XtV-9" edge="1">
          <mxGeometry width="160" relative="1" as="geometry">
            <mxPoint x="615" y="440" as="sourcePoint" />
            <mxPoint x="480" y="380" as="targetPoint" />
          </mxGeometry>
        </mxCell>
        <mxCell id="AlnXWLAUJYZxP2XW6bRh-1" value="Rectangle" style="swimlane;fontStyle=1;align=center;verticalAlign=top;childLayout=stackLayout;horizontal=1;startSize=29;horizontalStack=0;resizeParent=1;resizeParentMax=0;resizeLast=0;collapsible=1;marginBottom=0;" parent="1" vertex="1">
          <mxGeometry x="250" y="291" width="120" height="54" as="geometry" />
        </mxCell>
        <mxCell id="AlnXWLAUJYZxP2XW6bRh-2" value="+ draw()" style="text;strokeColor=none;fillColor=none;align=left;verticalAlign=top;spacingLeft=4;spacingRight=4;overflow=hidden;rotatable=0;points=[[0,0.5],[1,0.5]];portConstraint=eastwest;fontStyle=0" parent="AlnXWLAUJYZxP2XW6bRh-1" vertex="1">
          <mxGeometry y="29" width="120" height="25" as="geometry" />
        </mxCell>
        <mxCell id="AlnXWLAUJYZxP2XW6bRh-3" value="" style="endArrow=block;endSize=10;endFill=0;shadow=0;strokeWidth=1;rounded=0;edgeStyle=elbowEdgeStyle;elbow=vertical;dashed=1;dashPattern=8 8;labelBackgroundColor=none;fontColor=default;entryX=0.5;entryY=1;entryDx=0;entryDy=0;" parent="1" source="AlnXWLAUJYZxP2XW6bRh-1" target="WFYV-QFJoavZbaiG5XtV-22" edge="1">
          <mxGeometry width="160" relative="1" as="geometry">
            <mxPoint x="190" y="301" as="sourcePoint" />
            <mxPoint x="363" y="170" as="targetPoint" />
          </mxGeometry>
        </mxCell>
      </root>
    </mxGraphModel>
  </diagram>
</mxfile>
